<?xml version="1.0" ?><svg style="enable-background:new 0 0 512 512;" version="1.1" viewBox="0 0 512 512" xml:space="preserve" xmlns="http://www.w3.org/2000/svg" xmlns:xlink="http://www.w3.org/1999/xlink"><g id="outerdark"><path d="M256.5,20C126.4,20,21,125.4,21,255.5S126.4,491,256.5,491S492,385.6,492,255.5S386.6,20,256.5,20z    M256,460.5c-112.9,0-204.5-91.6-204.5-204.5S143.1,51.5,256,51.5S460.5,143.1,460.5,256S368.9,460.5,256,460.5z" style="fill:#BD081C;"/></g><g id="outerlight"><path d="M423.1,89l-22.4,22.4c37,37,59.8,88.1,59.8,144.6c0,112.9-91.6,204.5-204.5,204.5   c-56.4,0-107.6-22.9-144.6-59.8L90,422.1c92,92,241.1,92,333,0S515,181,423.1,89z" style="opacity:0.2;fill:#FFFFFF;"/></g><g id="innerdark"><circle cx="256" cy="256" r="180" style="fill:#BD081C;"/></g><g id="Pinterest"><path d="M260.9,152.1c-56.7,0-85.3,40.6-85.3,74.5c0,20.5,7.8,38.8,24.4,45.6c2.7,1.1,5.2,0,6-3   c0.6-2.1,1.9-7.4,2.4-9.6c0.8-3,0.5-4-1.7-6.7c-4.8-5.7-7.9-13-7.9-23.4c0-30.2,22.6-57.2,58.8-57.2c32,0,49.7,19.6,49.7,45.7   c0,34.4-15.2,63.4-37.8,63.4c-12.5,0-21.8-10.3-18.8-23c3.6-15.1,10.5-31.4,10.5-42.3c0-9.8-5.2-17.9-16.1-17.9   c-12.8,0-23,13.2-23,30.9c0,11.3,3.8,18.9,3.8,18.9s-13.1,55.3-15.3,65c-4.6,19.3-0.7,43-0.4,45.3c0.2,1.4,2,1.8,2.8,0.7   c1.2-1.5,16.4-20.3,21.5-39.1c1.5-5.3,8.4-32.8,8.4-32.8c4.1,7.9,16.3,14.9,29.1,14.9c38.4,0,64.4-35,64.4-81.8   C336.4,185.1,306.4,152.1,260.9,152.1z" style="fill:#E6E7E8;"/></g><g id="innerlight"><path d="M128.1,382.6c-70.3-70.3-70.3-184.3,0-254.6s184.3-70.3,254.6,0" style="opacity:0.2;fill:#FFFFFF;"/><g/><g/><g/><g/><g/><g/></g></svg>