<?xml version="1.0" ?><svg style="enable-background:new 0 0 512 512;" version="1.1" viewBox="0 0 512 512" xml:space="preserve" xmlns="http://www.w3.org/2000/svg" xmlns:xlink="http://www.w3.org/1999/xlink"><g id="outerdark"><path d="M256.5,20C126.4,20,21,125.4,21,255.5S126.4,491,256.5,491S492,385.6,492,255.5S386.6,20,256.5,20z    M256,460.5c-112.9,0-204.5-91.6-204.5-204.5S143.1,51.5,256,51.5S460.5,143.1,460.5,256S368.9,460.5,256,460.5z" style="fill:#F7931D;"/></g><g id="outerlight"><path d="M423.1,89l-22.4,22.4c37,37,59.8,88.1,59.8,144.6c0,112.9-91.6,204.5-204.5,204.5   c-56.4,0-107.6-22.9-144.6-59.8L90,422.1c92,92,241.1,92,333,0S515,181,423.1,89z" style="opacity:0.2;fill:#FFFFFF;"/></g><g id="innerdark"><circle cx="256" cy="256" r="180" style="fill:#F7931D;"/></g><g id="Blogger"><path d="M346.3,231.7h-11.4l-0.2,0c-7.1,0-13-5.5-13.5-12.5l0-0.1c0-37.3-30.2-67.5-67.5-67.5h-34   c-37.3,0-67.5,30.2-67.5,67.5v74c0,37.3,30.2,67.5,67.5,67.5h72.6c37.3,0,67.5-30.2,67.5-67.5l0-47.8   C359.8,237.7,353.7,231.7,346.3,231.7z M218,206.2h38.2c7.2,0,13,5.8,13,13c0,7.2-5.8,13-13,13H218c-7.2,0-13-5.8-13-13   C205,212.1,210.8,206.2,218,206.2z M294.6,306.7h-76.7c-6.8,0-12.3-5.5-12.3-12.3c0-6.8,5.5-12.3,12.3-12.3h76.7   c6.8,0,12.3,5.5,12.3,12.3C306.9,301.2,301.4,306.7,294.6,306.7z" style="fill:#E6E7E8;"/></g><g id="innerlight"><path d="M128.1,382.6c-70.3-70.3-70.3-184.3,0-254.6s184.3-70.3,254.6,0" style="opacity:0.2;fill:#FFFFFF;"/><g/><g/><g/><g/><g/><g/></g></svg>